Coordinates
version=1
nRows=5
nColumns=40
inDegrees=yes

Units are S.I. units (second, meters, Newtons, ...)
Angles are in degrees.

endheader
time	pelvis_tilt	pelvis_list	pelvis_rotation	pelvis_tx	pelvis_ty	pelvis_tz	hip_flexion_r	hip_adduction_r	hip_rotation_r	knee_angle_r	knee_angle_r_beta	ankle_angle_r	subtalar_angle_r	mtp_angle_r	hip_flexion_l	hip_adduction_l	hip_rotation_l	knee_angle_l	knee_angle_l_beta	ankle_angle_l	subtalar_angle_l	mtp_angle_l	lumbar_extension	lumbar_bending	lumbar_rotation	arm_flex_r	arm_add_r	arm_rot_r	elbow_flex_r	pro_sup_r	wrist_flex_r	wrist_dev_r	arm_flex_l	arm_add_l	arm_rot_l	elbow_flex_l	pro_sup_l	wrist_flex_l	wrist_dev_l
     40.58500000	     -1.72751422	     -5.47232318	     -0.57476157	      1.12489558	      0.92660842	      0.51110994	     16.76305363	      3.01346256	     -9.94204964	     21.53336335	     21.53336335	      8.38985222	     -2.67561624	     -4.18425791	     11.16002645	    -11.63707087	     -5.42111289	     44.89674669	     44.89674669	     13.42193299	    -17.17873281	     -2.34768735	    -11.31947461	      7.85504971	      0.45038249	      5.45140272	    -14.80792490	    -11.69579524	     37.49417455	     45.92906185	      0.00000000	      0.00000000	      3.30885385	    -13.12949636	     -3.10157806	     48.71331803	     46.21246185	      0.00000000	      0.00000000
     40.59885714	     -1.67611087	     -5.49134179	     -0.11220691	      1.12437734	      0.92717422	      0.51328465	     16.16106474	      3.14879982	    -10.29805879	     21.20555471	     21.20555471	      8.61162555	     -2.66261086	     -4.26725410	     13.26019769	    -12.07618871	     -4.43772976	     48.68846515	     48.68846515	     11.42717422	    -17.70015500	     -2.33371097	    -11.41664984	      7.87610555	      0.65149478	      6.00741853	    -15.04458667	    -11.59775415	     37.94207676	     45.90977930	      0.00000000	      0.00000000	      3.38052186	    -13.16725176	     -3.22596137	     48.75367670	     46.22854443	      0.00000000	      0.00000000
     40.61271429	     -1.75758693	     -5.55749106	      0.36472551	      1.12360017	      0.92754016	      0.51532195	     15.69032728	      3.33166785	    -10.69415049	     20.81348097	     20.81348097	      8.74730706	     -2.66393462	     -4.34321752	     15.54870530	    -12.45777606	     -3.32083346	     52.30303476	     52.30303476	      9.49195023	    -18.04828940	     -1.95248267	    -11.34090723	      7.94079793	      0.79246510	      6.46850155	    -15.34607749	    -11.47001515	     38.45864797	     45.88561389	      0.00000000	      0.00000000	      3.33141573	    -13.12628286	     -3.36200060	     48.79815545	     46.24511968	      0.00000000	      0.00000000
     40.62657143	     -1.83782670	     -5.55984755	      0.83338836	      1.12261816	      0.92796773	      0.51724062	     15.21768944	      3.46069662	    -11.01695507	     20.39659961	     20.39659961	      8.88084428	     -2.68844636	     -4.42480794	     17.76452222	    -12.68826612	     -2.27247483	     55.52051252	     55.52051252	      7.79000693	    -18.23616956	     -1.11973541	    -11.33623987	      7.91768384	      0.96653293	      6.93505469	    -15.66089965	    -11.29858644	     39.04252060	     45.85660089	      0.00000000	      0.00000000	      3.27400195	    -13.10063322	     -3.53377757	     48.86398235	     46.26539115	      0.00000000	      0.00000000
     40.64042857	     -1.94123232	     -5.42181676	      1.28461360	      1.12132733	      0.92843195	      0.51891709	     14.80547931	      3.43144811	    -11.27058798	     19.98815893	     19.98815893	      8.75865830	     -2.88759183	     -5.08458150	     20.07101420	    -12.46723211	     -1.00730718	     58.61808769	     58.61808769	      7.99300726	    -18.05723906	      4.57437827	    -11.37890366	      7.71750594	      0.92962510	      6.96148271	    -16.25204698	     -9.81581161	     41.40234676	     45.68567192	      0.00000000	      0.00000000	      3.03639646	    -12.97045542	     -4.64232697	     49.28044286	     46.39438722	      0.00000000	      0.00000000
